#N canvas 593 37 956 606 12;
#X obj 156 33 receive fromGUI;
#X obj 156 63 route list;
#X obj 444 149 route /testzona1 /testzona2 /testzona3 /testzona4;
#X obj 444 198 route /testzona5 /testzona6 /testzona7 /testzona8;
#X obj 99 352 dac~ 1 2;
#X obj 46 251 catch~ mix;
#X obj 313 302 metro 1000;
#X obj 394 156 * 180;
#X obj 394 178 + 20;
#X obj 394 200 i;
#X obj 394 230 * 4;
#X obj 394 274 /;
#X msg 394 252 60000 \$1;
#X obj 511 277 makefilename %u;
#X obj 511 319 send toGUI;
#X msg 511 298 list /bpm \$1;
#X obj 471 410 t b f;
#X obj 397 317 r ratio;
#X obj 444 173 fraccion 1;
#X obj 529 173 fraccion 2;
#X obj 614 173 fraccion 3;
#X obj 699 173 fraccion 4;
#X obj 444 224 fraccion 5;
#X obj 529 224 fraccion 6;
#X obj 614 224 fraccion 7;
#N canvas 0 22 450 278 (subpatch) 0;
#X array af_ratio 8 float 2;
#X coords 0 100 8 0 100 70 1 0 0;
#X restore 321 37 graph;
#X obj 699 224 fraccion 8;
#X obj 313 325 f;
#X obj 342 326 + 1;
#X obj 336 416 tabread af_ratio;
#X obj 313 348 % 8;
#X obj 397 363 moses 1e-06;
#X obj 455 318 != 1;
#X obj 397 340 spigot 1;
#X obj 313 541 clone voz 8;
#X obj 46 273 *~ 0.05;
#X obj 784 274 s timbre;
#X obj 268 411 t b f;
#N canvas 272 282 1564 789 barra_sec 0;
#X obj 449 694 send toGUI;
#X msg 789 484 list /sec clear;
#X msg 674 614 list /sec penwidth 1;
#X obj 598 415 t l b;
#X obj 680 577 loadbang;
#X obj 1108 352 bng 15 250 50 0 empty empty empty 17 7 0 10 -262144
-1 -1;
#X obj 741 93 inlet;
#X obj 738 128 sel 0 1 2 3 4 5 6 7;
#X msg 169 260 0 0.102;
#X msg 305 263 0.128 0.23;
#X msg 430 259 0.256 0.358;
#X msg 546 259 0.384 0.487;
#X msg 365 474 list /sec paintrect \$1 0.75 \$2 1 1 0.5 0 1;
#X msg 665 268 0.512 0.615;
#X msg 825 283 0.641 0.743;
#X msg 946 275 0.769 0.871;
#X msg 1066 281 0.897 1;
#X connect 1 0 0 0;
#X connect 2 0 0 0;
#X connect 3 0 12 0;
#X connect 3 1 1 0;
#X connect 4 0 2 0;
#X connect 5 0 1 0;
#X connect 6 0 7 0;
#X connect 7 0 8 0;
#X connect 7 1 9 0;
#X connect 7 2 10 0;
#X connect 7 3 11 0;
#X connect 7 4 13 0;
#X connect 7 5 14 0;
#X connect 7 6 15 0;
#X connect 7 7 16 0;
#X connect 7 8 5 0;
#X connect 8 0 3 0;
#X connect 9 0 3 0;
#X connect 10 0 3 0;
#X connect 11 0 3 0;
#X connect 12 0 0 0;
#X connect 13 0 3 0;
#X connect 14 0 3 0;
#X connect 15 0 3 0;
#X connect 16 0 3 0;
#X restore 359 394 pd barra_sec;
#X obj 313 371 t b f f;
#X obj 244 126 route /vol /nota /play /tempo;
#X obj 268 388 mtof;
#X obj 156 89 route /reverb;
#X obj 784 232 route /timbres;
#X msg 784 253 \$1;
#X obj 313 263 t f f;
#N canvas 402 88 460 607 midi 0;
#X obj 116 63 route 2 1;
#X obj 276 159 t f f b;
#X obj 160 226 >;
#X obj 92 134 sel 0 1;
#X obj 138 161 t b f f;
#X obj 185 477 + 1;
#X obj 218 240 -;
#X obj 218 262 abs;
#X obj 99 193 f;
#X obj 83 422 % 10;
#X obj 133 194 + 1;
#X obj 83 448 sel 0;
#X obj 218 373 -;
#X obj 218 307 int;
#X obj 218 285 * 1000;
#X obj 218 329 clip 0 10;
#X msg 218 351 10 \$1;
#N canvas 293 276 453 524 inc_dec 0;
#X msg 196 297 -1;
#X msg 152 296 1;
#X obj 202 210 change;
#X msg 202 172 set -1;
#X obj 72 48 inlet;
#X obj 320 64 inlet;
#X obj 153 380 outlet;
#X obj 285 382 outlet;
#X obj 153 260 sel 1 0;
#X connect 0 0 6 0;
#X connect 1 0 6 0;
#X connect 2 0 7 0;
#X connect 2 0 8 0;
#X connect 3 0 2 0;
#X connect 4 0 2 0;
#X connect 5 0 3 0;
#X connect 8 0 1 0;
#X connect 8 1 0 0;
#X restore 185 417 pd inc_dec;
#X text 213 396 reset;
#X obj 252 440 tgl 15 0 empty empty empty 17 7 0 10 -262144 -1 -1 0
1;
#X obj 185 449 t b f;
#X obj 185 505 clip 1 127;
#X obj 116 36 inlet;
#X obj 110 559 outlet;
#X msg 115 97 \$1;
#X msg 276 135 \$1;
#X obj 110 488 f;
#X obj 25 427 r init;
#X msg 53 482 69;
#X connect 0 0 24 0;
#X connect 0 1 25 0;
#X connect 1 0 2 1;
#X connect 1 1 6 1;
#X connect 1 2 17 1;
#X connect 2 0 17 0;
#X connect 3 2 4 0;
#X connect 4 0 8 0;
#X connect 4 1 2 1;
#X connect 4 1 6 1;
#X connect 4 2 2 0;
#X connect 4 2 6 0;
#X connect 5 0 21 0;
#X connect 6 0 7 0;
#X connect 7 0 14 0;
#X connect 8 0 10 0;
#X connect 8 0 9 0;
#X connect 9 0 11 0;
#X connect 10 0 8 1;
#X connect 11 0 26 0;
#X connect 12 0 9 1;
#X connect 13 0 15 0;
#X connect 14 0 13 0;
#X connect 15 0 16 0;
#X connect 16 0 12 0;
#X connect 17 0 20 0;
#X connect 17 1 19 0;
#X connect 20 0 5 0;
#X connect 20 1 5 1;
#X connect 21 0 26 1;
#X connect 22 0 0 0;
#X connect 24 0 3 0;
#X connect 25 0 1 0;
#X connect 26 0 5 0;
#X connect 26 0 23 0;
#X connect 27 0 28 0;
#X connect 28 0 26 0;
#X restore 193 353 pd midi;
#N canvas 455 23 607 465 doremi 0;
#X obj 92 186 list split;
#X obj 92 100 t b f;
#X obj 412 85 div 12;
#X obj 92 73 mod 12;
#X obj 92 47 t f f;
#X obj 413 136 - 1;
#X msg 413 188 set \$1;
#X msg 92 143 Do Do# Re Re# Mi Fa Fa# Sol Sol# La La# Si;
#X obj 414 163 makefilename %%s%d;
#X obj 92 25 inlet;
#X obj 126 332 outlet;
#X symbolatom 90 383 10 0 0 0 - - -;
#X obj 126 294 makefilename %s;
#X symbolatom 416 252 10 0 0 0 - - -;
#X floatatom 481 131 5 0 0 0 - - -;
#X connect 0 1 12 0;
#X connect 1 0 7 0;
#X connect 1 1 0 1;
#X connect 2 0 5 0;
#X connect 2 0 14 0;
#X connect 3 0 1 0;
#X connect 4 0 3 0;
#X connect 4 1 2 0;
#X connect 5 0 8 0;
#X connect 6 0 12 0;
#X connect 7 0 0 0;
#X connect 8 0 6 0;
#X connect 8 0 13 0;
#X connect 9 0 4 0;
#X connect 12 0 10 0;
#X connect 12 0 11 0;
#X restore 193 432 pd doremi;
#X obj 193 476 send toGUI;
#X msg 193 454 list /midi \$1;
#N canvas 469 80 929 684 reverb 0;
#X obj 266 635 outlet~;
#X obj 392 638 outlet~;
#X obj 355 117 inlet;
#X obj 295 329 * 100;
#X obj 441 329 * 100;
#X obj 395 304 * 127;
#X obj 395 328 mtof;
#N canvas 219 107 772 734 mix 0;
#X obj 184 264 -;
#X msg 184 242 1 \$1;
#X obj 183 318 pack 0 50;
#X obj 309 325 pack 0 50;
#X obj 183 345 line~;
#X obj 329 353 line~;
#X obj 526 142 inlet;
#X obj 162 381 *~;
#X obj 313 392 *~;
#X obj 37 172 inlet~;
#X obj 217 169 inlet~;
#X obj 166 531 outlet~;
#X obj 285 533 outlet~;
#X obj 403 392 *~;
#X obj 391 149 inlet~;
#X obj 405 532 outlet~;
#X connect 0 0 2 0;
#X connect 1 0 0 0;
#X connect 2 0 4 0;
#X connect 3 0 5 0;
#X connect 4 0 7 1;
#X connect 5 0 8 1;
#X connect 5 0 13 1;
#X connect 6 0 1 0;
#X connect 6 0 3 0;
#X connect 7 0 11 0;
#X connect 8 0 12 0;
#X connect 9 0 7 0;
#X connect 10 0 8 0;
#X connect 13 0 15 0;
#X connect 14 0 13 0;
#X restore 321 553 pd mix;
#X obj 113 181 inlet~;
#X msg 562 422 list /reverb 1 0.95 0.8 0.2 0.8;
#X obj 561 447 send toGUI;
#X obj 495 364 loadbang;
#X msg 487 498 0.8;
#X obj 343 327 * 100;
#X obj 282 422 rev3~ 100 95 2892 20;
#X obj 354 271 unpack 100 95 2892 20 0.8;
#X connect 2 0 15 0;
#X connect 3 0 14 2;
#X connect 4 0 14 5;
#X connect 5 0 6 0;
#X connect 6 0 14 4;
#X connect 7 0 0 0;
#X connect 7 0 1 0;
#X connect 7 1 0 0;
#X connect 7 2 1 0;
#X connect 8 0 7 0;
#X connect 8 0 14 0;
#X connect 9 0 10 0;
#X connect 11 0 9 0;
#X connect 11 0 12 0;
#X connect 12 0 7 3;
#X connect 13 0 14 3;
#X connect 14 0 7 1;
#X connect 14 1 7 2;
#X connect 15 0 3 0;
#X connect 15 1 13 0;
#X connect 15 2 5 0;
#X connect 15 3 4 0;
#X connect 15 4 7 3;
#X restore 96 329 pd reverb;
#X obj 22 39 loadbang;
#N canvas 591 206 281 272 quartics 0;
#X obj 37 28 inlet~;
#X obj 35 218 outlet~;
#X obj 122 52 pack 0 50;
#X obj 122 76 line~;
#X obj 35 188 *~;
#X obj 53 138 *~;
#X obj 53 163 *~;
#X obj 122 27 inlet;
#X connect 0 0 4 0;
#X connect 2 0 3 0;
#X connect 3 0 5 0;
#X connect 3 0 5 1;
#X connect 4 0 1 0;
#X connect 5 0 6 0;
#X connect 5 0 6 1;
#X connect 6 0 4 1;
#X connect 7 0 2 0;
#X restore 46 295 pd quartics;
#X obj 394 494 *;
#N canvas 266 156 695 663 polifonia 0;
#X obj 192 116 inlet;
#X obj 245 116 inlet;
#X msg 192 304 \; \$2 \$1;
#X obj 192 283 pack f s;
#X obj 231 261 makefilename vox%d;
#X obj 192 150 f;
#X obj 220 150 + 1;
#X obj 192 195 pack 0 0;
#X msg 192 216 \$2 \$1;
#X obj 192 238 unpack;
#X obj 192 172 % 8;
#X connect 0 0 5 0;
#X connect 1 0 7 1;
#X connect 3 0 2 0;
#X connect 4 0 3 1;
#X connect 5 0 6 0;
#X connect 5 0 10 0;
#X connect 6 0 5 1;
#X connect 7 0 8 0;
#X connect 8 0 9 0;
#X connect 9 0 3 0;
#X connect 9 1 4 0;
#X connect 10 0 7 0;
#X restore 313 519 pd polifonia;
#X obj 22 67 pipe 1000;
#X obj 492 25 r init_gui;
#X msg 22 93 \; init bang \; init_gui bang;
#X obj 636 414 sel 1;
#X obj 636 393 route /shake;
#X obj 636 351 receive fromSystem;
#X obj 636 372 route list;
#X msg 636 435 \; init bang;
#X msg 492 52 \; toGUI list /tempo 0.225 \; toGUI list /vol 0.75 \;
toGUI list /timbres sinusoide sierra \; timbre 1;
#X connect 0 0 1 0;
#X connect 1 0 42 0;
#X connect 2 0 18 0;
#X connect 2 1 19 0;
#X connect 2 2 20 0;
#X connect 2 3 21 0;
#X connect 2 4 3 0;
#X connect 3 0 22 0;
#X connect 3 1 23 0;
#X connect 3 2 24 0;
#X connect 3 3 26 0;
#X connect 3 4 43 0;
#X connect 5 0 35 0;
#X connect 6 0 27 0;
#X connect 7 0 8 0;
#X connect 8 0 9 0;
#X connect 9 0 10 0;
#X connect 9 0 13 0;
#X connect 10 0 12 0;
#X connect 11 0 6 1;
#X connect 12 0 11 0;
#X connect 13 0 15 0;
#X connect 15 0 14 0;
#X connect 16 0 54 0;
#X connect 16 1 53 0;
#X connect 17 0 33 0;
#X connect 27 0 28 0;
#X connect 27 0 30 0;
#X connect 28 0 27 1;
#X connect 29 0 53 0;
#X connect 30 0 39 0;
#X connect 31 1 16 0;
#X connect 32 0 33 1;
#X connect 33 0 31 0;
#X connect 35 0 52 0;
#X connect 37 0 53 0;
#X connect 37 1 53 1;
#X connect 39 0 54 0;
#X connect 39 1 29 0;
#X connect 39 2 38 0;
#X connect 40 0 52 1;
#X connect 40 1 46 0;
#X connect 40 2 45 0;
#X connect 40 3 7 0;
#X connect 40 4 2 0;
#X connect 41 0 37 0;
#X connect 42 0 50 1;
#X connect 42 1 40 0;
#X connect 43 0 44 0;
#X connect 44 0 36 0;
#X connect 45 0 6 0;
#X connect 45 1 32 0;
#X connect 46 0 41 0;
#X connect 46 0 47 0;
#X connect 47 0 49 0;
#X connect 49 0 48 0;
#X connect 50 0 4 0;
#X connect 50 1 4 1;
#X connect 51 0 55 0;
#X connect 52 0 50 0;
#X connect 53 0 54 1;
#X connect 55 0 57 0;
#X connect 56 0 63 0;
#X connect 58 0 62 0;
#X connect 59 0 58 0;
#X connect 60 0 61 0;
#X connect 61 0 59 0;
