#N canvas 380 23 970 818 12;
#X msg 464 151 \$2;
#X msg 434 151 \$2;
#X obj 423 294 t f f b f;
#X obj 317 735 send toGUI;
#X obj 464 174 list prepend;
#N canvas 534 60 964 883 FRACCION 0;
#X obj 327 117 pack 0 1;
#X obj 373 70 t b f;
#X obj 327 142 t l l b;
#X obj 516 573 loadbang;
#N canvas 770 183 480 725 dibuja_numerador 0;
#X obj 259 374 expr 1/$f1;
#X obj 106 388 expr $f2-$f1;
#X obj 109 148 unpack;
#X obj 209 243 t f f;
#X obj 107 462 *;
#X text 82 266 num;
#X text 185 190 den;
#X text 184 317 den;
#X obj 109 118 inlet;
#X obj 107 525 outlet;
#X obj 257 524 outlet;
#X text 308 418 valor de 1/den;
#X obj 259 347 / 0.8;
#X connect 0 0 4 1;
#X connect 0 0 10 0;
#X connect 1 0 4 0;
#X connect 2 0 1 0;
#X connect 2 1 3 0;
#X connect 3 0 12 0;
#X connect 3 1 1 1;
#X connect 4 0 9 0;
#X connect 8 0 2 0;
#X connect 12 0 0 0;
#X restore 350 203 pd dibuja_numerador;
#N canvas 1053 734 418 406 dibuja_denominador 0;
#X obj 108 175 until;
#X obj 108 206 f;
#X obj 142 208 +;
#X obj 186 147 t b f;
#X msg 156 173 0;
#X obj 69 125 unpack;
#X obj 108 150 - 1;
#X obj 69 97 inlet;
#X obj 186 97 inlet;
#X obj 108 255 outlet;
#X connect 0 0 1 0;
#X connect 1 0 2 0;
#X connect 1 0 9 0;
#X connect 2 0 1 1;
#X connect 3 0 4 0;
#X connect 3 1 2 1;
#X connect 4 0 2 0;
#X connect 5 1 6 0;
#X connect 6 0 0 0;
#X connect 7 0 5 0;
#X connect 8 0 3 0;
#X restore 62 495 pd dibuja_denominador;
#X text 312 227 1/den;
#X obj 326 29 inlet;
#X obj 373 29 inlet;
#X obj 352 783 outlet;
#X obj 62 520 moses 0.8;
#X obj 63 647 list prepend;
#X obj 144 573 loadbang;
#X obj 144 597 f \$1;
#X msg 62 544 list framerect 0 \$1 1 \$1 1 1 1 1;
#X obj 516 693 list prepend;
#X obj 597 622 loadbang;
#X obj 597 645 f \$1;
#X msg 516 596 list penwidth 1;
#X obj 659 277 list prepend;
#X obj 740 210 loadbang;
#X obj 740 232 f \$1;
#X msg 659 254 list clear;
#X obj 350 380 list prepend;
#X obj 431 306 loadbang;
#X obj 431 330 f \$1;
#X msg 350 261 list paintrect 0 \$1 1 0.8 0 1 1 0.7;
#X obj 144 622 makefilename /testzona%d;
#X obj 431 355 makefilename /testzona%d;
#X obj 597 668 makefilename /testzona%d;
#X obj 740 254 makefilename /testzona%d;
#X connect 0 0 2 0;
#X connect 1 0 0 0;
#X connect 1 1 0 1;
#X connect 2 0 5 0;
#X connect 2 1 4 0;
#X connect 2 2 22 0;
#X connect 3 0 18 0;
#X connect 4 0 26 0;
#X connect 4 1 5 1;
#X connect 5 0 10 0;
#X connect 7 0 0 0;
#X connect 8 0 1 0;
#X connect 10 0 14 0;
#X connect 11 0 9 0;
#X connect 12 0 13 0;
#X connect 13 0 27 0;
#X connect 14 0 11 0;
#X connect 15 0 9 0;
#X connect 16 0 17 0;
#X connect 17 0 29 0;
#X connect 18 0 15 0;
#X connect 19 0 9 0;
#X connect 20 0 21 0;
#X connect 21 0 30 0;
#X connect 22 0 19 0;
#X connect 23 0 9 0;
#X connect 24 0 25 0;
#X connect 25 0 28 0;
#X connect 26 0 23 0;
#X connect 27 0 11 1;
#X connect 28 0 23 1;
#X connect 29 0 15 1;
#X connect 30 0 19 1;
#X restore 318 575 pd FRACCION;
#N canvas 793 76 631 464 cuantiza 0;
#X obj 216 187 * 10;
#X obj 216 210 int;
#X obj 215 143 inlet;
#X obj 216 372 outlet;
#X obj 331 56 inlet;
#X obj 216 344 -;
#X obj 216 296 pack;
#X msg 216 320 \$2 \$1;
#X obj 215 266 change;
#X obj 96 67 r init;
#X msg 171 156 1;
#X msg 367 152 set -1;
#X obj 96 90 t b b;
#X obj 390 55 inlet;
#X connect 0 0 1 0;
#X connect 1 0 8 0;
#X connect 2 0 0 0;
#X connect 4 0 6 1;
#X connect 4 0 0 1;
#X connect 5 0 3 0;
#X connect 6 0 7 0;
#X connect 7 0 5 0;
#X connect 8 0 6 0;
#X connect 9 0 12 0;
#X connect 10 0 0 0;
#X connect 11 0 8 0;
#X connect 12 0 10 0;
#X connect 12 1 11 0;
#X connect 13 0 11 0;
#X restore 538 312 pd cuantiza;
#X obj 538 281 / 0.8;
#X obj 572 226 moses 0.8;
#X text 390 121 toque;
#X text 477 120 arrastra;
#N canvas 0 23 608 550 check_zona 0;
#X obj 276 242 > 0.8;
#X obj 275 183 inlet;
#X obj 275 295 outlet;
#X connect 0 0 2 0;
#X connect 1 0 0 0;
#X restore 562 174 pd check_zona;
#N canvas 658 23 782 851 gui_deno 0;
#X obj 158 80 inlet;
#X obj 441 97 inlet;
#X obj 498 99 inlet;
#X obj 559 98 inlet;
#X obj 232 816 outlet;
#X obj 279 221 >;
#X obj 211 129 sel 0 1;
#X obj 257 156 t b f f;
#X obj 234 683 f;
#X obj 301 685 + 1;
#X obj 337 235 -;
#X obj 337 257 abs;
#X obj 218 188 f;
#X obj 141 497 % 10;
#X obj 252 189 + 1;
#X obj 141 523 sel 0;
#X obj 337 368 -;
#X obj 337 302 int;
#X obj 337 280 * 1000;
#X obj 337 324 clip 0 10;
#X msg 337 346 10 \$1;
#N canvas 293 276 453 524 inc_dec 0;
#X msg 196 297 -1;
#X msg 152 296 1;
#X obj 152 260 sel 0 1;
#X obj 202 210 change;
#X msg 202 172 set -1;
#X obj 72 48 inlet;
#X obj 320 64 inlet;
#X obj 153 380 outlet;
#X obj 285 382 outlet;
#X connect 0 0 7 0;
#X connect 1 0 7 0;
#X connect 2 0 1 0;
#X connect 2 1 0 0;
#X connect 3 0 2 0;
#X connect 3 0 8 0;
#X connect 4 0 3 0;
#X connect 5 0 3 0;
#X connect 6 0 4 0;
#X restore 306 618 pd inc_dec;
#X text 380 596 reset;
#X obj 373 641 tgl 15 0 empty empty empty 17 7 0 10 -262144 -1 -1 0
1;
#X obj 306 650 t b f;
#X obj 301 708 clip 1 99;
#X obj 113 599 r init;
#X msg 90 688 1;
#X obj 234 769 change;
#X obj 112 647 t b b;
#X msg 153 677 set 2;
#X connect 0 0 6 0;
#X connect 1 0 5 1;
#X connect 2 0 10 1;
#X connect 3 0 21 1;
#X connect 5 0 21 0;
#X connect 6 2 7 0;
#X connect 7 0 12 0;
#X connect 7 1 5 1;
#X connect 7 1 10 1;
#X connect 7 2 5 0;
#X connect 7 2 10 0;
#X connect 8 0 9 0;
#X connect 8 0 28 0;
#X connect 9 0 25 0;
#X connect 10 0 11 0;
#X connect 11 0 18 0;
#X connect 12 0 14 0;
#X connect 12 0 13 0;
#X connect 13 0 15 0;
#X connect 14 0 12 1;
#X connect 15 0 8 0;
#X connect 16 0 13 1;
#X connect 17 0 19 0;
#X connect 18 0 17 0;
#X connect 19 0 20 0;
#X connect 20 0 16 0;
#X connect 21 0 24 0;
#X connect 21 1 23 0;
#X connect 24 0 9 0;
#X connect 24 1 9 1;
#X connect 25 0 8 1;
#X connect 26 0 29 0;
#X connect 27 0 8 0;
#X connect 28 0 4 0;
#X connect 29 0 27 0;
#X connect 29 1 30 0;
#X connect 30 0 28 0;
#X restore 500 411 pd gui_deno;
#N canvas 537 23 546 538 gui_nomi 0;
#X obj 203 61 inlet;
#X obj 201 357 f;
#X obj 202 473 outlet;
#X obj 348 76 inlet;
#X obj 201 269 clip 0 99;
#X obj 268 358 clip 0 99;
#X obj 268 324 f;
#X obj 317 276 t b f;
#X obj 202 444 change;
#X msg 425 365 set -1;
#X obj 453 307 loadbang;
#X obj 464 76 inlet;
#X connect 0 0 4 0;
#X connect 1 0 6 1;
#X connect 1 0 8 0;
#X connect 3 0 4 2;
#X connect 3 0 7 0;
#X connect 4 0 1 0;
#X connect 5 0 1 0;
#X connect 6 0 5 0;
#X connect 7 0 6 0;
#X connect 7 1 5 2;
#X connect 8 0 2 0;
#X connect 9 0 8 0;
#X connect 10 0 9 0;
#X connect 11 0 9 0;
#X restore 318 457 pd gui_nomi;
#X obj 434 92 route 1 2;
#X obj 434 63 inlet;
#N canvas 877 26 362 284 NUMERADOR 0;
#X obj 59 73 makefilename %u;
#X obj 59 183 list prepend;
#X obj 140 157 makefilename /nomi%d;
#X obj 140 106 loadbang;
#X obj 140 130 f \$1;
#X obj 59 42 inlet;
#X obj 59 214 outlet;
#X connect 0 0 1 0;
#X connect 1 0 6 0;
#X connect 2 0 1 1;
#X connect 3 0 4 0;
#X connect 4 0 2 0;
#X connect 5 0 0 0;
#X restore 516 570 pd NUMERADOR;
#X obj 160 568 t b f;
#X obj 160 615 /;
#X obj 138 733 tabwrite af_ratio;
#X obj 253 679 - 1;
#X obj 158 658 send ratio;
#N canvas 997 532 643 606 DENOMINADOR 0;
#X obj 85 118 makefilename %u;
#X obj 85 227 list prepend;
#X obj 166 201 makefilename /deno%d;
#X obj 166 150 loadbang;
#X obj 166 175 f \$1;
#X obj 85 88 inlet;
#X obj 85 251 outlet;
#X connect 0 0 1 0;
#X connect 1 0 6 0;
#X connect 2 0 1 1;
#X connect 3 0 4 0;
#X connect 4 0 2 0;
#X connect 5 0 0 0;
#X restore 520 500 pd DENOMINADOR;
#X obj 253 606 loadbang;
#X obj 253 636 i \$1;
#X obj 316 234 route 0 1;
#X obj 572 251 t f b b;
#X text 628 252 resetea change;
#X connect 0 0 4 0;
#X connect 1 0 2 0;
#X connect 1 0 8 0;
#X connect 2 0 12 1;
#X connect 2 1 12 2;
#X connect 2 2 12 3;
#X connect 2 3 11 0;
#X connect 4 0 25 0;
#X connect 5 0 3 0;
#X connect 6 0 13 0;
#X connect 7 0 6 0;
#X connect 8 0 26 0;
#X connect 11 0 4 1;
#X connect 12 0 6 1;
#X connect 12 0 13 1;
#X connect 12 0 5 1;
#X connect 12 0 22 0;
#X connect 12 0 18 0;
#X connect 13 0 16 0;
#X connect 13 0 5 0;
#X connect 13 0 17 0;
#X connect 14 0 1 0;
#X connect 14 1 0 0;
#X connect 15 0 14 0;
#X connect 16 0 3 0;
#X connect 17 0 18 0;
#X connect 17 1 18 1;
#X connect 18 0 21 0;
#X connect 18 0 19 0;
#X connect 20 0 19 1;
#X connect 22 0 3 0;
#X connect 23 0 24 0;
#X connect 24 0 20 0;
#X connect 25 0 7 0;
#X connect 25 1 12 0;
#X connect 26 0 7 0;
#X connect 26 1 6 2;
#X connect 26 2 13 2;
