#N canvas 879 340 450 300 12;
#N canvas 790 283 650 460 parcial 1;
#X obj 278 385 *~;
#X obj 396 269 vline~;
#X obj 396 170 inlet;
#X obj 278 414 outlet~;
#X obj 29 163 inlet;
#X obj 29 233 phasor~;
#X obj 136 343 *~;
#X obj 254 187 != 1;
#X obj 250 215 tgl 15 0 empty empty empty 17 7 0 10 -262144 -1 -1 0
1;
#X obj 157 245 pack 0 10;
#X obj 157 270 line~;
#X obj 102 234 osc~;
#X obj 248 129 r timbre;
#X msg 396 239 0 \, 0.9 20 \, 0.5 80 20 \, 0 80 100;
#X obj 165 189 tgl 15 0 empty empty empty 17 7 0 10 -262144 -1 -1 0
1;
#X obj 249 248 pack 0 10;
#X obj 249 273 line~;
#X obj 77 343 *~;
#X connect 0 0 3 0;
#X connect 1 0 0 1;
#X connect 2 0 13 0;
#X connect 4 0 5 0;
#X connect 4 0 11 0;
#X connect 5 0 17 0;
#X connect 6 0 0 0;
#X connect 7 0 8 0;
#X connect 8 0 15 0;
#X connect 9 0 10 0;
#X connect 10 0 17 1;
#X connect 11 0 6 0;
#X connect 12 0 7 0;
#X connect 12 0 14 0;
#X connect 13 0 1 0;
#X connect 14 0 9 0;
#X connect 15 0 16 0;
#X connect 16 0 6 1;
#X connect 17 0 0 0;
#X restore 110 142 pd parcial;
#X obj 110 108 t f b;
#X obj 110 170 throw~ mix;
#X obj 110 74 r vox\$1;
#X connect 0 0 2 0;
#X connect 1 0 0 0;
#X connect 1 1 0 1;
#X connect 3 0 1 0;
